<?xml version="1.0" encoding="UTF-8" standalone="no"?>
<svg
   xmlns:dc="http://purl.org/dc/elements/1.1/"
   xmlns:cc="http://creativecommons.org/ns#"
   xmlns:rdf="http://www.w3.org/1999/02/22-rdf-syntax-ns#"
   xmlns:svg="http://www.w3.org/2000/svg"
   xmlns="http://www.w3.org/2000/svg"
   xmlns:sodipodi="http://sodipodi.sourceforge.net/DTD/sodipodi-0.dtd"
   xmlns:inkscape="http://www.inkscape.org/namespaces/inkscape"
   version="1.1"
   id="svg4805"
   x="0px"
   y="0px"
   viewBox="0 0 2891.9299 2891.9297"
   enable-background="new 0 0 2121.029 1637.092"
   xml:space="preserve"
   sodipodi:docname="logo.svg"
   inkscape:version="1.0.2 (e86c870879, 2021-01-15)"
   width="2891.9299"
   height="2891.9297"
   inkscape:export-filename="/home/baran/Documents/Websites/Projects/GUIDE-IN-TMS/static/images/logo.png"
   inkscape:export-xdpi="16.996262"
   inkscape:export-ydpi="16.996262"><metadata
   id="metadata89"><rdf:RDF><cc:Work
       rdf:about=""><dc:format>image/svg+xml</dc:format><dc:type
         rdf:resource="http://purl.org/dc/dcmitype/StillImage" /><dc:title></dc:title></cc:Work></rdf:RDF></metadata><defs
   id="defs87">
	

		
		
		
		
		
		
		
		
		
		
		
		
		
		
		
		
		
		
		
		
		
		
		
		
		
		
		
		
		
		
		
		
		
		
		
		
		
		
		
		
		
		
		
		
		
		
		
		
		
		
		
		
		
		
		
		
		
		
		
		
		
		
		
		
		
		
		
		
		
		
		
		
		
		
		
		
		
		
		
		
	</defs><sodipodi:namedview
   pagecolor="#ffffff"
   bordercolor="#666666"
   borderopacity="1"
   objecttolerance="10"
   gridtolerance="10"
   guidetolerance="10"
   inkscape:pageopacity="1"
   inkscape:pageshadow="2"
   inkscape:window-width="1920"
   inkscape:window-height="983"
   id="namedview85"
   showgrid="false"
   inkscape:zoom="0.2586904"
   inkscape:cx="1932.2683"
   inkscape:cy="1383.2199"
   inkscape:window-x="0"
   inkscape:window-y="27"
   inkscape:window-maximized="1"
   inkscape:current-layer="svg4805"
   fit-margin-top="0"
   fit-margin-left="0"
   fit-margin-right="0"
   fit-margin-bottom="0"
   inkscape:snap-global="false"
   inkscape:document-rotation="0" />

<path
   id="path12048"
   style="fill:#f19a0e;fill-opacity:1;fill-rule:evenodd;stroke-width:7.1531"
   d="M 1741.2775,0 984.54926,1695.0551 1350.6453,1667.552 1041.2742,2891.9297 1839.809,1399.7776 1413.8109,1413.1112 Z"
   sodipodi:nodetypes="ccccccc" /><path
   style="fill:none;fill-opacity:1;stroke:#717171;stroke-width:377.953;stroke-miterlimit:4;stroke-dasharray:none;stroke-opacity:0.99984151;opacity:1"
   id="path929"
   sodipodi:type="arc"
   sodipodi:cx="1430.1393"
   sodipodi:cy="1476.105"
   sodipodi:rx="1107.0973"
   sodipodi:ry="1107.0973"
   sodipodi:start="1.9838673"
   sodipodi:end="4.4303874"
   sodipodi:arc-type="arc"
   sodipodi:open="true"
   d="M 985.72397,2490.087 A 1107.0973,1107.0973 0 0 1 325.41852,1403.6036 1107.0973,1107.0973 0 0 1 1122.0577,412.73763" /><path
   style="fill:none;fill-opacity:1;stroke:#717171;stroke-width:377.953;stroke-miterlimit:4;stroke-dasharray:none;stroke-opacity:0.99984151;opacity:1"
   id="path929-6"
   sodipodi:type="arc"
   sodipodi:cx="1430.1393"
   sodipodi:cy="1476.105"
   sodipodi:rx="1107.0973"
   sodipodi:ry="1107.0973"
   sodipodi:start="5.012277"
   sodipodi:end="1.3021754"
   sodipodi:arc-type="arc"
   sodipodi:open="true"
   d="M 1757.1905,418.41791 A 1107.0973,1107.0973 0 0 1 2537.1013,1493.4121 1107.0973,1107.0973 0 0 1 1723.9652,2543.4994" /><path
   sodipodi:type="star"
   style="fill:#707070;fill-opacity:1;stroke-width:50;stroke-miterlimit:4;stroke-dasharray:none;opacity:1"
   id="path1191-3"
   sodipodi:sides="3"
   sodipodi:cx="963.37"
   sodipodi:cy="-404.27216"
   sodipodi:r1="160.50513"
   sodipodi:r2="80.252563"
   sodipodi:arg1="-0.52359878"
   sodipodi:arg2="0.52359878"
   inkscape:flatsided="true"
   inkscape:rounded="0"
   inkscape:randomized="0"
   inkscape:transform-center-y="-49.937957"
   transform="matrix(1.8784078,-1.8030243,1.8030243,1.8784078,576.40146,5037.9511)"
   inkscape:transform-center-x="58.202046"
   d="M 1102.3715,-484.52472 963.37,-243.76703 824.36848,-484.52472 Z" /><path
   sodipodi:type="star"
   style="fill:#707070;fill-opacity:1;stroke-width:50;stroke-miterlimit:4;stroke-dasharray:none;opacity:1"
   id="path1191-3-6"
   sodipodi:sides="3"
   sodipodi:cx="963.37"
   sodipodi:cy="-404.27216"
   sodipodi:r1="160.50513"
   sodipodi:r2="80.252563"
   sodipodi:arg1="-0.52359878"
   sodipodi:arg2="0.52359878"
   inkscape:flatsided="true"
   inkscape:rounded="0"
   inkscape:randomized="0"
   inkscape:transform-center-y="49.938088"
   transform="matrix(-0.62226095,-2.528261,2.528261,-0.62226095,2773.2374,2585.8318)"
   inkscape:transform-center-x="-58.202228"
   d="M 1102.3715,-484.52472 963.37,-243.76703 824.36848,-484.52472 Z" /><g
   id="g1650"
   style="opacity:0.754047;stroke:#000000;stroke-width:21.6;stroke-miterlimit:4;stroke-dasharray:none;stroke-opacity:0.999841"
   transform="matrix(0.87142914,0,0,0.87142914,204.33092,58.047721)"><path
     id="path4610"
     d="m 1329.3005,1967.448 c 33.7144,51.4353 51.62,106.4535 128.0115,130.1986 28.1897,10.2116 51.348,-5.7978 63.8599,18.6263 0.1012,0.1976 0.2184,0.3862 0.3514,0.5639 74.546,100.2726 193.3228,212.9835 194.3235,213.5405 22.792,12.6886 36.4207,48.4302 69.6794,47.629 0.2274,-0.01 0.4547,-0.031 0.6791,-0.075 26.1167,-5.1416 62.1691,0.021 81.41,-27.0877 1.4534,-2.0451 3.0021,-15.0355 -4.2948,-25.5578 -11.9033,-17.165 -37.0441,-20.9276 -52.985,-38.6823 -14.0099,-15.6251 -22.2043,-36.0652 -34.6903,-54.5665 -1.2072,-1.8634 -3.6971,-2.3955 -5.5605,-1.1883 -1.8634,1.2072 -2.3956,3.6961 -1.1883,5.5605 14.1608,22.0007 20.9563,39.264 35.2353,55.2982 17.4936,23.201 60.2134,24.3873 56.2999,55.2614 -16.8215,22.5577 -48.1006,17.7954 -75.2439,22.9945 -28.7774,0.5828 -40.0314,-32.0158 -64.8596,-46.2521 -65.7351,-63.7774 -139.0828,-140.0309 -192.2982,-211.5976 -15.2926,-28.9452 -42.414,-12.7422 -68.0076,-22.0305 -15.7066,-5.8256 -46.3424,-13.869 -76.462,-52.1859 -17.5244,-22.2946 -30.2983,-48.5553 -47.5368,-74.8547 -2.87,-4.5201 -9.7559,-0.084 -6.723,4.4059 z"
     style="stroke:#000000;stroke-width:21.6;stroke-miterlimit:4;stroke-dasharray:none;stroke-opacity:0.999841" /><path
     id="path4623"
     d="m 1539.9779,2046.0445 c -0.1132,0.9997 -1.7344,6.9851 -7.7208,14.6641 -7.0814,9.0829 -20.5701,21.1381 -46.3027,32.0744 -2.061,0.826 -3.0627,3.1659 -2.2367,5.2269 0.8498,2.1206 3.296,3.1094 5.3798,2.1722 21.8578,-9.2893 48.2346,-25.4198 57.1517,-47.4047 1.3234,-3.2612 1.6887,-5.5982 1.6887,-5.5982 0.3455,-2.193 -1.1536,-4.251 -3.3466,-4.5965 -2.2427,-0.3505 -4.3265,1.2191 -4.6134,3.4618 z"
     style="stroke:#000000;stroke-width:21.6;stroke-miterlimit:4;stroke-dasharray:none;stroke-opacity:0.999841" /><path
     id="path4219"
     d="m 2231.4619,1790.7968 c -4.5747,-0.1142 -7.5997,4.7206 -5.5168,8.782 29.5398,59.6475 17.4022,134.0902 -21.422,187.1934 -14.2919,19.5933 -63.9879,125.893 -147.1997,179.1967 -45.4728,25.1399 -93.6876,46.0595 -143.3359,60.8319 -49.2731,8.3809 -100.3858,3.2404 -150.4223,-3.5948 -115.6148,-27.6536 -189.0042,-146.9268 -205.9786,-165.0001 -26.8603,-28.5352 -31.3218,-67.9252 -33.6002,-107.1307 -0.06,-0.9997 -2.9674,-27.0628 -14.1331,-49.2691 -1.4335,-3.0061 -5.0323,-4.2818 -8.0384,-2.8482 -3.0061,1.4335 -4.2818,5.0323 -2.8483,8.0384 5.8067,12.1982 10.0975,24.3854 13.0043,45.1223 2.3002,39.3762 6.73,82.0643 36.517,113.9907 53.5112,72.0948 119.6246,146.7868 212.5279,168.8967 0.1916,0.046 0.3852,0.081 0.5797,0.1082 50.526,6.9097 103.099,12.3759 154.7468,3.5293 1.0007,-0.1717 67.0794,-18.0078 146.9843,-62.2088 0.1122,-0.062 0.2214,-0.1271 0.3296,-0.1956 68.7026,-43.934 111.3291,-115.4759 150.8512,-182.7121 41.0708,-56.4309 54.0562,-135.0681 22.2459,-199.3002 -0.9779,-2.0481 -3.023,-3.3734 -5.2914,-3.43 z"
     style="stroke:#000000;stroke-width:21.6;stroke-miterlimit:4;stroke-dasharray:none;stroke-opacity:0.999841" /><path
     id="path4318"
     d="m 2232.3147,1815.8582 c -18.9977,14.558 -42.7238,19.7164 -50.4992,22.2172 -54.1654,17.9582 -111.3201,22.8317 -167.7729,31.704 -70.8936,7.1321 -121.3133,48.3905 -184.504,68.4018 -46.9093,13.7875 -83.2714,51.756 -100.3788,96.7859 -0.9431,2.484 2.8155,3.9135 3.7596,1.4276 v 0 c 16.7073,-43.9756 52.2425,-80.9959 97.7927,-94.3685 65.1623,-21.0904 118.1444,-62.6129 183.7902,-68.2539 0.047,0 0.093,-0.01 0.14,-0.018 56.2343,-8.8396 113.5945,-13.7012 168.3308,-31.8302 18.0872,-4.8943 36.4713,-11.1388 51.7867,-22.8743 1.5557,-1.1556 0.7238,-3.6217 -1.1962,-3.6236 -0.4656,0.014 -0.8687,0.132 -1.2489,0.4318 z"
     style="stroke:#000000;stroke-width:21.6;stroke-miterlimit:4;stroke-dasharray:none;stroke-opacity:0.999841" /><path
     id="path4320"
     d="m 2153.2079,1786.7284 c -42.7307,-0.8766 -108.7588,26.3699 -161.0906,31.0796 -0.09,0.01 -0.1797,0.023 -0.268,0.043 -45.5681,10.436 -92.6134,24.8778 -130.3833,54.2895 -3.8181,2.9754 -10.4657,18.7455 -60.7643,41.2327 l 0.067,-0.029 c -49.1004,19.7988 -74.3752,69.7072 -91.712,115.8868 -0.953,2.479 2.7977,3.9254 3.7527,1.4435 17.2186,-43.8535 40.2161,-93.7431 89.4643,-113.6015 21.554,-8.7701 46.5757,-23.1781 61.772,-41.8372 36.9588,-28.7387 83.3281,-43.0693 128.6281,-53.4477 55.0758,-5.0045 106.2282,-29.1645 160.5326,-31.0389 2.61,-0.055 2.5991,-3.9661 0,-4.0207 z"
     style="stroke:#000000;stroke-width:21.6;stroke-miterlimit:4;stroke-dasharray:none;stroke-opacity:0.999841" /><path
     id="path4322"
     d="m 2210.5462,1805.3895 c 0,0 -38.0806,6.994 -70.9839,11.936 -57.8079,0.2055 -106.5469,35.5947 -161.4102,42.834 -47.3998,-4.0445 -86.6717,25.538 -124.6441,47.4375 -2.3112,1.3084 -0.3326,4.8089 1.9806,3.4985 38.1699,-21.973 76.8105,-50.9598 122.6049,-46.9183 0.1459,0.013 0.2929,0.01 0.4378,-0.01 56.3525,-7.3842 104.9584,-42.7148 161.2514,-42.83 0.9997,-0.01 31.03,-4.663 71.1438,-11.9559 2.46,-0.41 2.0828,-4.0525 -0.3803,-3.9919 z"
     style="stroke:#000000;stroke-width:21.6;stroke-miterlimit:4;stroke-dasharray:none;stroke-opacity:0.999841" /><path
     id="path4324"
     d="m 1838.6681,1868.5484 c -0.4527,0.016 -0.8865,0.1847 -1.231,0.4785 -25.3543,20.9871 -58.4066,27.4004 -87.3051,44.0442 -40.6558,23.34 -48.9832,79.9704 -61.2041,117.6827 -0.8538,2.5147 2.9505,3.8113 3.8062,1.2936 13.1284,-39.2491 19.0354,-90.3637 59.4371,-115.5116 28.1142,-16.1821 61.4851,-22.6073 87.8282,-44.4124 1.512,-1.2152 0.5838,-3.6445 -1.3313,-3.575 z"
     style="stroke:#000000;stroke-width:21.6;stroke-miterlimit:4;stroke-dasharray:none;stroke-opacity:0.999841" /><path
     id="path4326"
     d="m 1824.7138,1831.5519 c -32.1221,20.5304 -66.6525,38.0637 -96.4276,62.8214 0,10e-4 0,0 0,0 -43.7523,32.6352 -46.9917,90.3498 -58.0631,137.9779 -0.682,2.6278 3.3596,3.5888 3.9145,0.9094 11.1905,-48.1434 14.554,-104.343 56.556,-135.6688 0.029,-0.021 0.057,-0.044 0.083,-0.066 29.3334,-24.4112 63.7288,-41.8978 96.106,-62.5901 1.7323,-1.0732 0.9361,-3.7447 -1.0841,-3.7189 -0.3197,-0.01 -0.7367,0.1013 -1.0851,0.3306 z"
     style="stroke:#000000;stroke-width:21.6;stroke-miterlimit:4;stroke-dasharray:none;stroke-opacity:0.999841" /><path
     id="path4328"
     d="m 2069.9305,1776.6756 c -0.6354,-0.011 -16.2933,2.3688 -16.9217,2.4641 -95.2889,7.5649 -178.6358,57.2341 -263.8997,93.895 -2.4402,1.0494 -0.8557,4.7445 1.5884,3.6941 v 0 c 85.6422,-36.8238 168.6267,-86.1663 262.7729,-93.5962 0,0 9.6388,-1.4723 16.6736,-2.4511 2.4809,-0.2979 2.2714,-3.9741 -0.2135,-4.0059 z"
     style="stroke:#000000;stroke-width:21.6;stroke-miterlimit:4;stroke-dasharray:none;stroke-opacity:0.999841" /><path
     id="path4330"
     d="m 2177.2379,1864.6706 c -76.0947,29.8417 -141.0863,9.7461 -207.5373,36.9042 -0.1082,0.044 -0.2114,0.097 -0.3107,0.1589 -70.2523,44.1355 -152.5677,50.2211 -212.5646,116.8101 -1.8823,1.9686 1.2052,4.7821 2.9862,2.6894 24.6376,-27.3438 55.9981,-47.1803 90.1255,-60.6045 0.035,-0.013 0.069,-0.028 0.1033,-0.043 40.1575,-18.4457 83.2327,-31.4738 121.2775,-55.323 65.5863,-26.7571 132.2576,-6.8452 207.4251,-36.8665 19.3123,-7.7376 37.9049,-16.89 56.9909,-24.6753 2.0887,-0.822 1.4454,-3.9482 -0.7972,-3.8797 -3.8103,0.7942 -38.6535,17.1987 -57.6987,24.8291 z"
     style="stroke:#000000;stroke-width:21.6;stroke-miterlimit:4;stroke-dasharray:none;stroke-opacity:0.999841" /><path
     id="path4332"
     d="m 2242.2543,1868.5524 c -0.3842,-0.015 -0.7655,0.08 -1.0971,0.275 -21.3147,12.1366 -44.4174,20.9146 -67.9222,28.1559 -46.7395,7.5569 -94.861,9.2069 -141.6581,19.9248 -58.7639,4.5588 -104.2486,44.7858 -155.8239,65.7253 -46.3464,11.1031 -88.0983,34.5612 -128.5059,58.4969 -2.4065,1.3174 -0.2701,4.942 2.048,3.4568 93.5208,-55.3985 118.0769,-54.1933 127.8875,-58.1931 52.5512,-21.3118 97.6745,-61.1367 154.8817,-65.5009 0.1003,-0.01 0.1986,-0.022 0.2969,-0.045 46.3782,-10.6375 94.4976,-12.2815 141.6561,-19.9189 1.0007,-0.1588 38.1928,-10.9939 69.1304,-28.6096 1.7821,-0.9808 1.1249,-3.6891 -0.8934,-3.7675 z"
     style="stroke:#000000;stroke-width:21.6;stroke-miterlimit:4;stroke-dasharray:none;stroke-opacity:0.999841" /><path
     id="path4334"
     d="m 2233.4643,1897.2702 c -0.5083,0.025 -17.0935,7.1439 -17.4737,7.3723 -49.2443,29.3968 -108.8253,22.4236 -164.2337,33.2557 -0.059,0.012 -0.1152,0.026 -0.1727,0.043 -89.4951,25.8289 -166.1239,85.0912 -257.7277,101.5056 -2.6318,0.3932 -2.0312,4.3692 0.5947,3.9761 82.6222,-12.3411 171.7559,-76.6318 258.1605,-101.592 54.4603,-10.6276 114.629,-3.5104 165.2671,-33.6429 5.4831,-2.3499 10.9671,-4.6998 16.4502,-7.0507 2.0868,-0.8597 1.368,-3.977 -0.8647,-3.8668 z"
     style="stroke:#000000;stroke-width:21.6;stroke-miterlimit:4;stroke-dasharray:none;stroke-opacity:0.999841" /><path
     id="path4336"
     d="m 2033.8116,1997.783 c -71.5835,0.2849 -134.4943,42.2105 -203.8977,48.8174 -2.6785,0.2204 -2.2993,4.2888 0.3802,4.0019 75.4722,-7.1847 141.7922,-54.1347 217.6476,-48.2903 0.074,0.01 0.1499,0.01 0.2254,0.01 33.9238,-1.1864 65.5902,14.6552 97.8641,22.7989 0.3177,0.08 26.8027,1.0752 27.1303,1.0881 2.6537,0.1022 2.8126,-3.9145 0.1549,-4.0178 v 0 c -8.8277,-0.3395 -17.6554,-0.678 -26.4831,-1.0175 -31.6067,-8.0057 -63.6285,-24.0995 -98.8082,-22.8685 h 0.2253 c -4.8556,-0.3743 -9.6665,-0.5411 -14.4388,-0.5222 z"
     style="stroke:#000000;stroke-width:21.6;stroke-miterlimit:4;stroke-dasharray:none;stroke-opacity:0.999841" /><path
     id="path4338"
     d="m 2230.762,1923.109 c -0.3842,-0.014 -0.7645,0.083 -1.096,0.2789 -29.4247,16.8791 -63.9959,20.7826 -97.6527,24.305 -60.8488,-2.3688 -118.1385,21.5798 -170.7512,48.876 -2.4263,1.2012 -0.5321,4.8586 1.8515,3.568 110.1973,-57.1726 154.6823,-46.8835 169.2134,-48.4342 33.7075,-3.5273 68.9408,-7.3912 99.3394,-24.8292 1.778,-0.9878 1.1149,-3.6921 -0.9044,-3.7645 z"
     style="stroke:#000000;stroke-width:21.6;stroke-miterlimit:4;stroke-dasharray:none;stroke-opacity:0.999841" /><path
     id="path4340"
     d="m 2212.0463,1960.448 c -1.0017,-0.01 -96.5279,1.9796 -180.1507,30.2576 -2.5286,0.812 -1.3025,4.6412 1.23,3.8281 48.4908,-15.6083 98.1262,-26.218 178.9723,-30.066 2.618,-0.076 2.5574,-4.0088 -0.052,-4.0197 z"
     style="stroke:#000000;stroke-width:21.6;stroke-miterlimit:4;stroke-dasharray:none;stroke-opacity:0.999841" /><path
     id="path4342"
     d="m 2098.4339,1994.9139 c -2.6537,0.1181 -2.478,4.1349 0.1787,4.0167 17.436,-0.7674 53.1429,-6.6674 84.3456,-1.4663 2.6447,0.4805 3.3327,-3.5581 0.6612,-3.9651 -28.5143,-4.7534 -57.1468,-0.6552 -85.1855,1.4147 z"
     style="stroke:#000000;stroke-width:21.6;stroke-miterlimit:4;stroke-dasharray:none;stroke-opacity:0.999841" /><path
     id="path4344"
     d="m 1705.1964,2049.4477 c -2.0015,-0.021 -2.7927,2.5901 -1.1288,3.6881 47.1287,32.0545 94.6078,63.0984 151.4637,62.6546 58.6835,-1.6271 108.6793,-7.8518 155.1707,-17.6117 0,-10e-4 0.01,-10e-4 0.014,0 36.4395,-7.0844 73.851,-4.6253 108.7011,8.3025 2.5376,1.0315 3.9979,-2.8929 1.3979,-3.7675 -35.5848,-13.2009 -73.7727,-15.6987 -110.9002,-8.4753 -49.004,10.7199 -104.1374,16.1385 -154.4847,17.5343 -55.8263,0.5728 -104.1662,-31.3943 -149.1039,-61.9587 -0.3315,-0.2323 -0.7247,-0.3594 -1.1297,-0.3643 z"
     style="stroke:#000000;stroke-width:21.6;stroke-miterlimit:4;stroke-dasharray:none;stroke-opacity:0.999841" /><path
     id="path4346"
     d="m 1759.7361,2058.0679 c -2.2169,-0.01 -2.8016,3.0686 -0.7466,3.8797 82.0027,33.7462 174.8503,33.8484 259.2188,9.3866 36.5398,-7.3951 73.2524,2.5246 110.3065,6.5444 2.6348,0.3385 3.15,-3.6485 0.5132,-3.988 -44.7619,-5.6955 -76.8601,-13.5384 -111.6417,-6.4927 -7.8737,1.5626 -129.5136,43.239 -256.8669,-9.1692 -0.2472,-0.1052 -0.5143,-0.1598 -0.7833,-0.1608 z"
     style="stroke:#000000;stroke-width:21.6;stroke-miterlimit:4;stroke-dasharray:none;stroke-opacity:0.999841" /><path
     id="path4348"
     d="m 2059.8787,2040.1226 c -50.7354,-0.4567 -91.6851,6.3994 -92.6858,6.7786 -39.7961,15.1606 -83.2307,10.7269 -125.5564,9.7411 -2.6557,-0.063 -2.7549,3.9561 -0.095,4.0197 42.004,0.9779 85.9281,5.5535 126.7904,-9.9118 60.3345,-9.4949 122.8322,-8.5398 183.0476,1.2717 2.6676,0.4964 3.3407,-3.5888 0.6453,-3.9671 -30.3231,-4.94 -61.223,-7.6532 -92.1458,-7.9322 z"
     style="stroke:#000000;stroke-width:21.6;stroke-miterlimit:4;stroke-dasharray:none;stroke-opacity:0.999841" /><path
     id="path4350"
     d="m 1683.7397,2060.1348 c 39.8636,36.518 87.5026,73.1948 144.7118,74.2184 37.7689,8.3373 78.4675,14.8518 115.8372,-0.9501 44.067,-9.0322 97.4303,-8.9836 146.6279,3.292 2.6001,0.6553 3.5462,-3.285 0.973,-3.9016 -6.1453,-1.5308 -3.8718,-0.9322 -9.9724,-2.6258 -6.8561,-1.9548 -70.7417,-14.6136 -138.5676,-0.6811 -0.1321,0.027 -0.2601,0.067 -0.3842,0.1202 -48.46,20.6287 -106.9083,0.8468 -114.22,0.7386 -55.6278,-0.9005 -102.5629,-36.7841 -142.2905,-73.177 -0.3951,-0.3723 -0.9253,-0.5688 -1.4673,-0.545 -1.7056,0 -2.6338,2.2784 -1.2479,3.5114 z"
     style="stroke:#000000;stroke-width:21.6;stroke-miterlimit:4;stroke-dasharray:none;stroke-opacity:0.999841" /><path
     id="path4352"
     d="m 1660.5823,2063.8041 c -1.8068,0.079 -2.5831,2.3181 -1.2508,3.5074 33.3292,30.6011 70.0408,59.1214 114.1634,72.902 0,0 0,0 0,0 104.6089,35.552 127.3811,26.8673 251.8415,28.1251 2.6546,0.075 2.7728,-3.9433 0.1141,-4.0187 -14.5758,-0.4011 -70.3902,0.3812 -106.1686,-0.3385 -32.8467,-0.7526 -63.8926,-0.1768 -144.5421,-27.5901 -32.3464,-11.1825 -62.4144,-25.8785 -112.6941,-72.0432 -0.3951,-0.3733 -0.9243,-0.5708 -1.4683,-0.547 z"
     style="stroke:#000000;stroke-width:21.6;stroke-miterlimit:4;stroke-dasharray:none;stroke-opacity:0.999841" /><path
     id="path4354"
     d="m 1644.8321,2069.5453 c -1.8049,0.042 -2.6338,2.2615 -1.3244,3.4806 29.4247,28.1519 58.2209,59.7676 97.75,75.0076 96.914,53.413 202.9198,48.2486 239.4746,50.4545 2.6517,0.1638 2.9038,-3.849 0.2482,-4.0138 -30.2507,-1.6807 -140.5413,3.6594 -237.8405,-49.9908 -0.08,-0.045 -0.1638,-0.083 -0.2502,-0.1162 -38.4916,-14.7733 -66.994,-45.9165 -96.6043,-74.2451 -0.3872,-0.3813 -0.9114,-0.5887 -1.4534,-0.5768 z"
     style="stroke:#000000;stroke-width:21.6;stroke-miterlimit:4;stroke-dasharray:none;stroke-opacity:0.999841" /><path
     id="path4356"
     d="m 1619.1154,2077.3474 c 37.7868,35.4161 73.9503,74.5867 121.6578,97.9773 59.0042,33.913 129.0162,42.3575 195.5466,43.2669 2.6954,0.079 2.7549,-4.0277 0.055,-4.0198 -119.8411,-1.638 -163.3968,-28.0993 -193.8311,-42.8558 -46.8328,-22.9617 -82.7492,-61.7522 -120.6779,-97.3022 -1.9429,-1.8733 -4.7355,1.1278 -2.75,2.9336 z"
     style="stroke:#000000;stroke-width:21.6;stroke-miterlimit:4;stroke-dasharray:none;stroke-opacity:0.999841" /><path
     id="path4358"
     d="m 1596.0474,2082.9923 c 47.8971,51.5138 99.6521,105.1094 169.5619,126.2841 31.8351,11.2054 65.0531,16.8304 96.9359,26.4573 2.5593,0.7892 3.7239,-3.0915 1.1615,-3.849 -35.1112,-10.6027 -45.2136,-10.1282 -96.8485,-26.4285 -68.6757,-20.7697 -119.989,-73.7061 -167.8672,-125.2 -1.8019,-1.9944 -4.802,0.7893 -2.9436,2.7361 z"
     style="stroke:#000000;stroke-width:21.6;stroke-miterlimit:4;stroke-dasharray:none;stroke-opacity:0.999841" /><path
     id="path4360"
     d="m 1725.3674,1862.8013 c -0.5926,-0.015 -1.1615,0.2313 -1.5546,0.675 -9.5326,10.433 -19.9388,20.2088 -29.3701,31.0608 0,0 0,0 -0.01,0.01 0,0 -0.01,0.01 -0.01,0.01 -37.2873,41.9782 -40.5496,100.0104 -42.9233,152.5219 -0.1668,2.6507 3.845,2.9069 4.0128,0.2522 2.7281,-43.8198 2.9098,-106.2093 41.9296,-150.1225 28.6622,-31.1044 31.7487,-31.5065 29.2499,-33.8593 -0.3604,-0.3395 -0.8329,-0.5331 -1.3273,-0.546 z"
     style="stroke:#000000;stroke-width:21.6;stroke-miterlimit:4;stroke-dasharray:none;stroke-opacity:0.999841" /><path
     id="path4362"
     d="m 1673.4129,1890.9413 c -33.6082,47.0135 -41.1582,106.5449 -49.1688,161.6802 -0.3823,2.6289 3.5967,3.2097 3.979,0.5778 8.0176,-55.183 15.6242,-113.9837 48.461,-159.92 0.6592,-0.8935 0.4685,-2.1524 -0.4249,-2.8106 -0.9114,-0.6711 -2.202,-0.4576 -2.8463,0.4726 z"
     style="stroke:#000000;stroke-width:21.6;stroke-miterlimit:4;stroke-dasharray:none;stroke-opacity:0.999841" /><path
     id="path4364"
     d="m 1652.0406,1899.355 c -38.3259,41.1522 -43.9906,99.4923 -59.3179,150.1006 -0.7704,2.5425 3.0775,3.712 3.8489,1.1655 v 0 c 15.4922,-51.1544 21.2482,-108.6227 58.4096,-148.5261 1.8614,-1.9438 -1.1298,-4.7385 -2.9406,-2.74 z"
     style="stroke:#000000;stroke-width:21.6;stroke-miterlimit:4;stroke-dasharray:none;stroke-opacity:0.999841" /><path
     id="path4366"
     d="m 1630.289,1898.1954 c -26.9576,41.5345 -56.2075,83.8076 -64.9012,134.2729 -0.4646,2.6597 3.5749,3.2762 3.9631,0.6831 8.5011,-49.3456 37.3092,-91.1659 64.3106,-132.7659 0.6184,-0.9223 0.3712,-2.1712 -0.551,-2.7887 -0.9402,-0.6314 -2.2189,-0.3594 -2.8215,0.5986 z"
     style="stroke:#000000;stroke-width:21.6;stroke-miterlimit:4;stroke-dasharray:none;stroke-opacity:0.999841" /><path
     id="path4368"
     d="m 1600.2737,1900.8829 c -23.9218,29.0672 -52.9503,59.7199 -56.4419,100.1683 -0.3048,2.7003 3.8331,3.0776 4.0038,0.3475 3.3417,-38.7091 31.4946,-68.7393 55.5424,-97.9595 0.7178,-0.8468 0.6146,-2.1155 -0.2323,-2.8333 -0.8637,-0.7327 -2.1652,-0.6076 -2.872,0.277 z"
     style="stroke:#000000;stroke-width:21.6;stroke-miterlimit:4;stroke-dasharray:none;stroke-opacity:0.999841" /><path
     id="path4370"
     d="m 1569.7292,1897.2295 c -15.3145,20.0996 -30.6279,40.2001 -45.9424,60.3007 -1.7036,2.1295 1.6113,4.6392 3.1977,2.4353 15.3145,-20.0996 30.6279,-40.1982 45.9424,-60.2988 0.685,-0.8736 0.5321,-2.1374 -0.3406,-2.8224 -0.8905,-0.6979 -2.184,-0.5242 -2.8571,0.3852 z"
     style="stroke:#000000;stroke-width:21.6;stroke-miterlimit:4;stroke-dasharray:none;stroke-opacity:0.999841" /><path
     id="path2453"
     d="m 1560.7903,778.70717 c -44.5078,-3.11134 -84.6931,25.96486 -123.0418,11.77125 -0.539,-0.19954 -1.0989,-0.33654 -1.6698,-0.40902 -102.3077,-12.93775 -205.1397,8.28366 -304.4125,24.8073 -0.7089,0.11814 -1.3969,0.33655 -2.0442,0.64927 -54.1892,26.20511 -112.5719,40.22201 -172.19165,51.8235 -0.01,9.9e-4 -0.0129,0.003 -0.0199,0.004 -45.68025,6.41428 -87.90765,22.39288 -126.05577,48.55431 -44.38071,30.63485 -82.45239,31.58394 -126.50847,56.63545 -50.80988,8.17346 -81.30772,48.53737 -114.92385,77.55897 -0.80514,0.695 -1.45341,1.5517 -1.90413,2.5147 -14.38025,30.7937 -52.45391,53.5638 -53.58964,94.1859 -32.69384,6.3816 -57.41775,32.5787 -72.99726,58.1673 l 0.7138,-0.9848 c -18.45457,21.5312 -4.99958,48.5225 -10.80033,62.5454 -3.70898,8.9667 -11.69381,7.9541 -14.83493,12.1942 -27.63073,37.3003 14.68503,75.3153 -2.97434,107.071 -0.29187,0.5252 -0.5212,1.0831 -0.68104,1.6619 -11.45754,41.6139 -34.72803,105.3397 12.73921,135.8236 -5.8762,21.1688 8.75721,51.6409 16.63681,76.2625 6.83124,47.2627 45.44496,74.0804 72.00251,104.1543 41.30909,54.2767 95.98581,97.1533 159.52794,120.5797 0.44873,0.1658 0.91236,0.2889 1.38491,0.3663 69.07881,11.3474 105.58886,6.3249 156.96661,9.3827 0.99971,0.06 3.61764,-0.03 4.7772,0.7852 2.1821,1.5319 -0.65721,14.7863 -1.25486,17.3834 -3.78046,16.4283 -9.67751,36.1507 0.64927,50.0216 l -0.41696,-0.6204 c 14.1251,23.5276 32.87751,51.0968 60.81798,65.072 33.84546,30.9594 80.95827,17.5352 113.11409,38.1977 0.413,0.2661 0.8518,0.4904 1.3085,0.6711 38.2861,15.0951 73.852,50.381 121.2368,54.0314 42.8578,10.1948 84.3873,-9.5832 111.0789,-41.9127 57.8982,-40.9516 126.2047,-68.7998 190.2899,-103.6291 57.2757,-7.0725 116.9302,-9.7202 175.3635,-21.3346 l -0.093,0.02 c 28.5461,-5.3014 78.5985,-3.3625 85.3166,-43.5011 48.0569,11.1061 93.8354,-12.1694 135.3143,-25.409 49.3048,-10.5432 88.4904,-39.3126 131.0543,-57.6947 81.7376,13.6029 164.1503,13.4133 241.7858,36.9439 l -0.4805,-0.1628 c 33.7769,12.77 75.3293,16.5534 108.4669,-3.2057 h 0.01 c 32.7266,-16.3361 58.5118,-40.5378 74.7088,-73.8173 32.4218,-34.601 27.3686,-81.0139 32.1965,-120.2173 0.129,-1.0494 0.036,-2.1136 -0.273,-3.1233 -7.8062,-25.5439 -10.2653,-62.4322 -35.0884,-84.6424 6.1591,-35.6295 -17.6326,-68.4921 -23.1226,-99.9291 -0.1787,-1.0285 -0.5699,-2.0094 -1.1477,-2.879 -31.837,-47.8644 -52.3437,-107.0175 -97.8393,-149.0285 5.5397,-22.6668 -8.6559,-51.6487 -15.4881,-75.7422 -0.2393,-0.8439 -0.6245,-1.6401 -1.1378,-2.3519 -32.5717,-45.17 -65.5366,-94.855 -115.2961,-127.0307 -10.2841,-10.705 -24.0955,-18.247 -35.2254,-26.3877 -22.7652,-16.6508 -18.666,-25.1995 -20.6794,-29.7652 -21.135,-47.86731 -73.1293,-69.10858 -108.5929,-97.62982 -26.8405,-30.91779 -71.0108,-20.38154 -91.8053,-47.59828 -0.7773,-1.01759 -1.8009,-1.82074 -2.9743,-2.33301 -70.6107,-30.81652 -147.6048,-54.02347 -149.0205,-54.18529 -50.801,-5.82855 -102.4875,-23.83339 -156.1873,-24.93735 -5.0174,-0.1648 -14.1847,-0.0338 -22.6877,0.62445 z m 176.3117,39.17166 c 48.595,15.05732 97.8661,32.44863 144.0953,52.54028 25.5777,30.82744 69.4114,20.71808 91.5164,47.24287 0.3177,0.38122 0.6711,0.72968 1.0563,1.04141 37.7907,30.48295 85.8913,51.09382 104.1622,91.49251 3.9403,31.5442 43.2301,43.802 59.8987,61.8286 0.4329,0.4676 0.9233,0.8786 1.4604,1.2231 46.2749,29.7344 78.378,77.2176 111.051,122.5712 6.7737,23.2159 20.4868,52.9523 13.9216,69.7688 -1.1536,2.9554 -0.3325,6.3179 2.0531,8.4097 43.8694,38.4479 64.384,97.1027 98.0974,148.2183 6.593,34.5037 29.7006,65.9993 22.0504,96.7324 -0.7238,2.9098 0.3445,5.9715 2.7221,7.7982 20.8889,16.056 24.4132,49.5223 33.0523,78.5885 -4.8884,41.4759 -1.0811,82.232 -28.7575,111.0034 -0.559,0.5818 -1.0216,1.2499 -1.3691,1.9776 -21.6254,45.2822 -55.8114,60.2313 -68.9428,68.1764 -27.6009,16.7133 -64.8734,14.0139 -95.8637,2.2973 -0.1578,-0.06 -0.3176,-0.1142 -0.4785,-0.1628 -81.2362,-24.6207 -165.2185,-24.022 -245.9891,-37.7322 -1.4177,-0.2402 -2.8751,-0.07 -4.1994,0.4905 -45.72,19.3639 -84.566,48.1512 -130.8409,57.8535 -25.4903,5.3292 -84.9383,39.6244 -135.9755,23.1305 -3.9622,-1.2796 -8.2112,0.8945 -9.4899,4.8567 -1.0613,3.285 1.4326,12.8305 -6.2257,21.6741 -12.7689,14.7466 -44.4184,14.6354 -67.8755,18.9926 -73.5334,13.321 -109.7744,13.0966 -175.7012,21.3207 -0.9381,0.1172 -1.8455,0.41 -2.6755,0.8627 -63.6334,34.7152 -133.3407,62.8264 -193.706,105.6574 -0.5629,0.3991 -1.0672,0.8736 -1.501,1.4097 -23.8275,29.4803 -60.2799,46.7257 -97.3429,37.6587 -0.413,-0.1003 -0.834,-0.1658 -1.2579,-0.1956 -40.2627,-2.8512 -74.4894,-35.9421 -116.7873,-52.8142 -36.6976,-23.0501 -81.72465,-9.1077 -111.08776,-36.8059 -4.28876,-4.0466 -24.88572,-7.0239 -57.37804,-61.1476 -0.81704,-1.3611 -4.0763,-4.5002 -2.98823,-15.7523 1.58446,-16.3747 9.29926,-32.2898 6.44307,-45.1898 -1.83563,-8.2896 -8.22608,-13.9573 -19.70546,-13.9295 l 0.46561,0.014 c -52.5373,-3.1273 -87.64159,1.8217 -154.64353,-9.0978 -92.67194,-34.3924 -139.26951,-100.8106 -152.79995,-116.1261 -28.43388,-32.2123 -63.1212,-56.6801 -68.56654,-97.1721 -1.2211,-9.0948 -24.46578,-56.2364 -15.53484,-72.8821 1.99249,-3.715 0.55397,-8.3532 -3.21855,-10.2782 -42.44482,-21.6364 -23.47798,-76.2336 -10.96513,-121.5625 19.87622,-38.1659 -19.16341,-73.9473 0.52716,-102.8498 37.29136,-17.1342 7.71381,-54.1307 25.78517,-75.2131 1.46235,-1.7066 27.1542,-48.591 69.25651,-53.0347 4.06638,-0.4298 7.04965,-4.0227 6.72204,-8.099 -2.97433,-37.0531 34.02912,-56.831 51.3291,-92.1616 35.0755,-30.5416 63.34061,-66.77561 107.5456,-73.31299 0.94214,-0.13899 1.84953,-0.45568 2.67353,-0.93221 39.26498,-22.7344 88.30277,-27.56819 129.02216,-58.10177 l -0.26011,0.18664 c 36.34624,-24.92643 76.31807,-40.0443 120.00782,-46.12302 1.0166,-0.14396 100.41857,-16.7073 175.21967,-52.6336 99.1775,-16.53158 200.0468,-36.95878 298.576,-24.61172 43.9469,15.4574 86.1078,-14.36635 126.6644,-11.21332 0.01,9.9e-4 8.5338,-0.47454 11.9847,-0.55992 62.0579,-0.002 105.7,17.7636 164.7678,24.67724 z"
     style="stroke:#000000;stroke-width:21.6;stroke-miterlimit:4;stroke-dasharray:none;stroke-opacity:0.999841" /><path
     id="path3230"
     d="m 2034.3308,1001.9887 c -5.6518,0.1092 -3.1083,4.7534 -15.1705,22.0832 -29.8485,33.8027 -61.8325,70.8032 -63.139,120.4148 -18.6194,114.4851 -67.825,177.782 -68.917,182.6138 -14.1073,62.5791 -84.7139,86.4284 -107.4821,137.4696 -16.8145,37.9218 -29.4117,84.5978 -62.6218,97.8026 -19.2468,7.6532 -38.4678,1.0563 -41.6159,0.6026 -63.2949,-9.1702 -125.6517,12.5079 -172.9849,54.4811 l 0.1102,-0.095 c -63.016,52.6962 -150.6288,82.2836 -230.4037,55.8413 l 0.2304,0.081 c -66.7429,-25.8021 -121.7482,29.7959 -169.1281,62.4272 -65.9734,45.2206 -86.6756,134.7624 -162.85764,162.0407 -2.62389,0.9054 -4.01674,3.7665 -3.11134,6.3904 0.90541,2.6239 3.76657,4.0168 6.39045,3.1114 80.04893,-27.5504 107.59123,-128.8127 165.27903,-163.2648 49.1321,-33.8385 99.0495,-84.8171 159.803,-61.3302 0.076,0.03 0.1529,0.058 0.2303,0.083 83.9683,27.8322 174.9049,-3.2245 240.0136,-57.6709 0.038,-0.031 0.074,-0.063 0.1102,-0.095 45.3428,-40.2091 104.7311,-60.7694 164.876,-52.0558 l -0.5589,-0.1122 c 76.4273,20.0867 94.178,-56.1659 115.3537,-103.9995 26.8514,-52.4876 92.6859,-73.7994 107.901,-138.5557 35.9809,-55.8283 58.7213,-118.9366 69.334,-184.3293 0.038,-0.2293 0.059,-0.4616 0.063,-0.6939 1.0007,-45.7765 30.9357,-80.854 60.9014,-114.7859 0.8806,-0.9997 7.6165,-10.7099 12.0979,-21.4279 1.1059,-2.5454 -0.062,-5.5059 -2.607,-6.6118 -0.6592,-0.2869 -1.376,-0.4289 -2.0968,-0.415 z"
     style="stroke:#000000;stroke-width:21.6;stroke-miterlimit:4;stroke-dasharray:none;stroke-opacity:0.999841" /><path
     id="path3235"
     d="m 1399.9132,1838.3772 c -7.2959,-0.3932 -14.694,1.5139 -21.6414,7.2075 l 0.1847,-0.138 c -44.9903,30.4343 -74.8131,27.3924 -78.1121,28.1906 -30.4849,7.3594 -68.0096,0.3674 -94.0737,24.1481 -2.9763,2.7172 -30.9356,52.723 -111.34,108.2108 -2.7608,1.8555 0.05,6.0221 2.8036,4.1706 41.0927,-27.5404 83.0828,-66.172 112.0776,-108.7965 24.4747,-22.1685 60.2541,-15.3581 91.437,-22.7969 29.3928,-0.7516 56.3247,-12.9328 80.024,-28.965 0.064,-0.043 0.1251,-0.089 0.1847,-0.138 18.9599,-15.5369 39.0426,1.4107 59.6723,13.0052 21.009,13.739 41.4948,28.6384 64.2291,40.2141 2.9873,1.6023 5.3382,-2.9992 2.2804,-4.4774 -43.3194,-22.0543 -82.0354,-58.4522 -107.7262,-59.8351 z"
     style="stroke:#000000;stroke-width:21.6;stroke-miterlimit:4;stroke-dasharray:none;stroke-opacity:0.999841" /><path
     id="path3250"
     d="m 1755.9417,1193.733 c -17.2831,21.3832 -30.0104,15.8734 -66.2008,87.4579 -39.7008,78.0614 -136.2217,30.5256 -204.4229,68.8336 -58.8235,28.961 -81.8358,106.7226 -132.1861,127.5022 -29.6857,12.2508 -56.3575,-1.3849 -60.8398,-1.786 -110.513,-9.883 -206.2784,65.8246 -286.2171,127.7515 -79.02436,53.1299 -114.90499,139.478 -150.1294,220.8711 -1.71054,3.7953 -0.0199,8.2588 3.77649,9.9693 3.79634,1.7106 8.25884,0.02 9.96938,-3.7765 31.3546,-69.728 65.11269,-161.2136 145.15963,-214.8181 42.0139,-28.1123 153.5594,-135.499 275.4366,-125.0104 49.8509,17.4687 83.6348,1.1774 116.8876,-38.0677 32.1567,-37.9506 46.2252,-67.5708 85.3463,-89.4008 45.8798,-25.9093 115.8729,-7.0199 166.1646,-30.894 31.1808,-14.8021 41.9206,-40.4434 44.5117,-44.3757 35.4359,-70.0934 44.35,-59.8878 64.4694,-84.7804 4.1885,-5.0344 0.3773,-12.5834 -6.0608,-12.355 -1.793,-0.023 -4.1568,0.959 -5.6648,2.879 z"
     style="stroke:#000000;stroke-width:21.6;stroke-miterlimit:4;stroke-dasharray:none;stroke-opacity:0.999841" /><path
     id="path3255"
     d="m 1641.3534,938.07429 c -95.7505,28.72972 -97.331,4.05943 -167.3748,112.23841 -16.7321,13.6744 -35.8459,40.221 -52.2613,68.7482 -74.7187,129.8462 -27.724,198.2539 -1.2916,297.4205 0.6702,2.6934 3.3963,4.3344 6.0897,3.6643 2.7668,-0.688 4.3979,-3.5303 3.6206,-6.2534 -26.626,-99.8904 -72.0164,-164.1632 0.2909,-289.8199 30.4015,-52.8331 50.239,-65.617 51.5882,-67.7078 67.7525,-104.74002 65.481,-79.63787 162.2273,-108.66642 5.6915,-1.6192 4.3304,-10.06865 -1.5567,-9.8562 -0.3157,0.002 -0.8508,0.0804 -1.3323,0.23231 z"
     style="stroke:#000000;stroke-width:21.6;stroke-miterlimit:4;stroke-dasharray:none;stroke-opacity:0.999841" /><path
     id="path3264"
     d="m 1640.4689,791.34015 c -1.6858,0.0169 -2.883,1.6609 -2.3698,3.27514 0.966,3.18976 1.9329,6.37953 2.8989,9.56929 5.2726,49.34853 40.5476,90.71123 83.8979,112.07958 20.7548,35.80121 42.0914,138.28764 64.2092,173.83174 32.8726,82.4643 119.9275,59.7686 143.743,144.1321 0.8627,3.2622 5.8116,1.8674 4.8357,-1.3651 -24.5442,-86.9456 -112.0785,-64.3879 -143.9891,-144.8032 -2.0997,-5.3142 -6.8421,-3.7715 -32.5687,-86.8741 -1.0732,-3.46678 -25.5946,-85.31061 -33.2806,-89.04739 -42.428,-20.63965 -76.9157,-61.08503 -81.8915,-108.7677 -0.039,-0.36831 -2.9386,-9.8562 -3.0468,-10.21062 -0.3107,-1.08708 -1.3085,-1.83066 -2.4382,-1.81974 z"
     style="stroke:#000000;stroke-width:21.6;stroke-miterlimit:4;stroke-dasharray:none;stroke-opacity:0.999841" /><path
     id="path3278"
     d="m 1993.7494,1309.0946 c -2.0232,0.018 -3.1857,2.3003 -2.0391,3.9483 12.7164,18.8407 26.767,36.5736 38.4281,55.7171 6.4103,59.8898 20.5344,98.6544 3.9343,155.8944 -11.0445,36.8556 -24.9522,74.96 -21.3574,114.8891 -12.5337,22.653 2.4938,55.3042 28.691,58.6389 24.027,11.2391 54.1555,12.497 71.8665,-7.2482 26.3838,-22.7086 60.6125,-39.4159 95.7197,-34.9812 0.147,0.018 0.2959,0.024 0.4438,0.016 23.8562,-1.2231 46.4586,-23.474 40.8911,-48.0361 -0.6333,-6.5354 -2.2426,-12.9 -4.4327,-18.9807 -1.0841,-3.2116 -5.9387,-1.4644 -4.7265,1.7026 3.8668,10.7397 4.0098,17.288 4.2441,18.2887 4.9658,21.5689 -15.514,40.8832 -36.1448,41.9941 -36.9379,-4.525 -72.2904,12.9567 -99.2917,36.2023 -0.086,0.073 -0.1668,0.1539 -0.2422,0.2383 -16.2377,18.3672 -44.6458,16.4641 -66.5244,6.1194 -0.2492,-0.1181 -0.5153,-0.1936 -0.7893,-0.2253 -22.7632,-2.5872 -36.371,-32.4983 -25.0029,-51.9298 0.2671,-0.4556 0.3833,-0.9828 0.3336,-1.509 -3.703,-38.715 9.9376,-76.3895 21.1073,-113.6501 17.4955,-56.7456 2.1344,-102.3296 -3.8004,-158.5699 -0.3951,-3.7249 -29.6669,-43.2817 -39.1835,-57.38 -0.4676,-0.7168 -1.2678,-1.1457 -2.1246,-1.1388 z"
     style="stroke:#000000;stroke-width:21.6;stroke-miterlimit:4;stroke-dasharray:none;stroke-opacity:0.999841" /><path
     id="path3306"
     d="m 2274.5709,1503.7745 c -53.8945,16.1931 -108.871,28.7883 -164.059,40.503 -2.7162,0.5738 -4.4526,3.2404 -3.8787,5.9556 0.5758,2.7262 3.2553,4.4556 5.9645,3.8768 54.8922,-11.6521 109.7367,-24.2236 163.6777,-40.3739 15.101,3.3535 30.205,2.8115 38.9642,13.2951 2.1474,2.5703 30.0442,21.3684 46.815,47.8306 3.1361,4.949 19.077,19.6598 49.4736,82.1238 0.028,0.057 1.0782,2.0808 1.1079,2.1364 0,10e-4 0,10e-4 0,0 l 1.0504,2.0223 c 1.236,2.4849 4.252,3.4985 6.7379,2.2625 2.4849,-1.236 3.4975,-4.252 2.2625,-6.7369 -15.2171,-30.7411 -30.1692,-60.2551 -52.3387,-87.4798 -12.6787,-19.8822 -30.3122,-35.3545 -48.1493,-49.3376 l 0.7565,0.7327 c -11.9986,-14.3624 -31.6753,-13.4937 -45.7567,-16.889 -0.3266,-0.078 -0.6592,-0.1241 -0.9947,-0.136 -0.5709,0 -1.0355,0.033 -1.6331,0.2124 z"
     style="stroke:#000000;stroke-width:21.6;stroke-miterlimit:4;stroke-dasharray:none;stroke-opacity:0.999841" /><path
     id="path3308"
     d="m 2058.7103,1183.2146 c -2.1405,0.027 -3.2553,2.5484 -1.8714,4.1537 19.9348,23.7868 35.0665,58.8176 69.5087,68.3531 6.5602,1.8188 38.3109,1.6639 58.9873,16.2487 0.076,0.055 0.1558,0.1052 0.2382,0.1509 21.5729,11.8407 28.9025,40.7591 32.4794,47.8365 19.3908,37.8543 43.1051,55.9018 62.6795,102.1281 11.39,27.2604 -2.9823,56.0944 -11.1856,83.7559 -0.9441,3.1838 3.8728,4.6154 4.818,1.4286 8.0046,-26.9904 23.4333,-57.3245 11.0157,-87.0916 -14.3485,-38.6872 -44.8364,-67.3792 -62.8214,-102.4537 -7.0923,-18.4834 -15.2568,-39.3663 -34.5076,-49.97 -18.0813,-12.6648 -40.2707,-14.279 -60.4904,-16.9218 -31.6286,-8.8366 -46.2451,-42.0854 -66.8699,-66.6951 -0.4844,-0.5937 -1.2141,-0.9342 -1.9805,-0.9233 z"
     style="stroke:#000000;stroke-width:21.6;stroke-miterlimit:4;stroke-dasharray:none;stroke-opacity:0.999841" /><path
     id="path3329"
     d="m 1646.5655,1623.8092 c -2.1464,0.01 -3.2732,2.5206 -1.9121,4.1338 0.269,0.3277 9.875,11.9877 10.1332,12.2836 13.3507,14.963 24.5283,32.0187 38.3238,47.2528 0,10e-4 0,0 0,0 9.0332,10.3159 21.6453,18.3156 36.1229,18.3176 40.8047,0.2095 81.5569,-2.6487 122.0668,-6.8779 22.2201,-2.2913 58.2934,-15.3909 82.1893,-21.408 3.2315,-0.7605 2.0838,-5.6539 -1.1516,-4.8914 -22.3641,5.2468 -52.8788,17.3496 -81.6135,21.3088 -52.449,5.4741 -86.1624,6.7736 -121.491,6.8431 -28.691,0 -42.417,-32.1945 -70.703,-63.8956 l 0.064,0.074 c -10.9363,-13.2395 -10.4429,-13.1482 -12.0333,-13.1442 z"
     style="stroke:#000000;stroke-width:21.6;stroke-miterlimit:4;stroke-dasharray:none;stroke-opacity:0.999841" /><path
     id="path3335"
     d="m 1520.2387,1611.9059 c -2.8483,30.8393 5.3996,62.3865 22.789,87.9831 29.2509,55.6079 89.7115,78.7444 128.0641,123.0228 2.0898,2.5802 5.9973,-0.5807 3.9055,-3.1629 -34.0311,-41.8601 -98.9412,-67.677 -127.6084,-122.3448 -0.9352,-1.7612 -26.7114,-35.5957 -22.1447,-85.0366 0.3554,-3.3426 -4.7434,-3.8271 -5.0055,-0.4616 z"
     style="stroke:#000000;stroke-width:21.6;stroke-miterlimit:4;stroke-dasharray:none;stroke-opacity:0.999841" /><path
     id="path3337"
     d="m 1591.6634,1754.9797 c -13.9276,22.6579 -42.4101,27.5642 -66.0112,39.6889 -2.9822,1.511 -0.6612,6.0161 2.2973,4.4694 22.5696,-11.5945 52.6624,-16.5852 67.9947,-41.5275 0.7436,-1.1725 0.3951,-2.7241 -0.7763,-3.4677 -1.1894,-0.7535 -2.7778,-0.3832 -3.5045,0.8369 z"
     style="stroke:#000000;stroke-width:21.6;stroke-miterlimit:4;stroke-dasharray:none;stroke-opacity:0.999841" /><path
     id="path3339"
     d="m 1853.0384,1488.6775 c 47.7244,12.9487 99.4903,50.0961 61.6946,97.7658 -0.7912,0.9998 -5.4354,12.1416 -16.198,24.0042 -2.2496,2.4422 1.4445,5.8494 3.6961,3.4052 5.9199,-6.4609 11.807,-14.8667 16.6457,-24.5879 40.1595,-51.0819 -13.4549,-91.5819 -64.5239,-105.438 -3.2553,-0.9252 -4.5549,4.0217 -1.3145,4.8507 z"
     style="stroke:#000000;stroke-width:21.6;stroke-miterlimit:4;stroke-dasharray:none;stroke-opacity:0.999841" /><path
     id="path3341"
     d="m 1980.5903,1500.1996 c -18.2729,8.1218 -36.5478,16.2437 -54.8207,24.3655 -3.1202,1.3035 -1.0444,6.042 2.0402,4.5915 18.2729,-8.1218 36.5477,-16.2436 54.8206,-24.3655 1.2757,-0.547 1.8664,-2.0242 1.3194,-3.2999 -0.5579,-1.2996 -2.0768,-1.8823 -3.3595,-1.2916 z"
     style="stroke:#000000;stroke-width:21.6;stroke-miterlimit:4;stroke-dasharray:none;stroke-opacity:0.999841" /><path
     id="path3343"
     d="m 2037.5573,1425.0272 c -27.5086,10.6007 -54.637,22.1705 -81.3692,34.582 -3.0091,1.3869 -0.9313,5.9547 2.1155,4.5588 77.3992,-35.9332 84.3913,-32.6779 82.5517,-37.6775 -0.4904,-1.3353 -1.9875,-1.9925 -3.298,-1.4633 z"
     style="stroke:#000000;stroke-width:21.6;stroke-miterlimit:4;stroke-dasharray:none;stroke-opacity:0.999841" /><path
     id="path3347"
     d="m 2121.3698,1091.5136 c -6.7429,18.9847 -7.0198,39.3503 -16.6844,55.7826 -50.255,31.2772 -100.1386,64.2848 -143.0917,105.6802 -2.4849,2.2993 1.094,6.0222 3.4866,3.6187 42.6801,-41.1334 92.4714,-74.0675 142.8445,-105.4032 0.3375,-0.2105 0.6204,-0.4984 0.8259,-0.8399 10.8401,-18.0217 10.9364,-39.0883 17.3536,-57.1557 0.4835,-1.3005 -0.1787,-2.747 -1.4792,-3.2304 -1.3243,-0.4925 -2.7996,0.2055 -3.2553,1.5477 z"
     style="stroke:#000000;stroke-width:21.6;stroke-miterlimit:4;stroke-dasharray:none;stroke-opacity:0.999841" /><path
     id="path3349"
     d="m 2310.4773,1583.198 c -1.7969,0.031 -2.9793,1.8862 -2.2546,3.5273 9.754,22.9458 11.5578,42.6434 11.9113,44.3906 12.5287,60.1469 -23.5475,118.3341 -73.862,149.4375 -2.9475,1.7145 -0.2154,6.1452 2.6408,4.2739 51.7857,-32.0129 89.1913,-92.0773 76.1403,-154.7349 l 0.033,0.1876 c -2.0273,-15.6132 -6.0648,-30.9972 -12.2389,-45.5214 -0.3931,-0.959 -1.3342,-1.5795 -2.3697,-1.5606 z"
     style="stroke:#000000;stroke-width:21.6;stroke-miterlimit:4;stroke-dasharray:none;stroke-opacity:0.999841" /><path
     id="path3351"
     d="m 1755.7283,1545.0568 c -0.099,4.5489 22.7105,14.6285 33.1346,21.8667 10.6752,7.413 16.2814,15.6838 13.6406,28.4627 -0.7187,3.2414 4.1866,4.3334 4.9063,1.0891 6.9504,-31.4589 -31.4291,-39.4804 -47.5089,-53.2491 -1.5954,-1.4058 -4.126,-0.3078 -4.1726,1.8306 z"
     style="stroke:#000000;stroke-width:21.6;stroke-miterlimit:4;stroke-dasharray:none;stroke-opacity:0.999841" /><path
     id="path3353"
     d="m 1830.307,1559.0956 c -8.7979,4.0604 -17.5968,8.1218 -26.3957,12.1822 -3.0796,1.3661 -0.9302,6.0261 2.1057,4.5628 8.7989,-4.0604 17.5968,-8.1219 26.3957,-12.1823 1.2687,-0.5629 1.8406,-2.0481 1.2767,-3.3158 -0.5758,-1.2996 -2.1116,-1.8565 -3.3824,-1.2469 z"
     style="stroke:#000000;stroke-width:21.6;stroke-miterlimit:4;stroke-dasharray:none;stroke-opacity:0.999841" /><path
     id="path3355"
     d="m 1254.4835,1722.7405 c -20.9752,44.6925 20.0788,88.0685 62.3538,102.9292 3.1153,1.1467 4.8556,-3.568 1.7364,-4.7166 -41.7599,-15.3611 -78.6869,-55.2843 -59.5413,-96.0781 1.4703,-3.026 -3.159,-5.2031 -4.5489,-2.1345 z"
     style="stroke:#000000;stroke-width:21.6;stroke-miterlimit:4;stroke-dasharray:none;stroke-opacity:0.999841" /><path
     id="path3357"
     d="m 1786.1864,1786.8078 c 0.043,1.2797 -1.5636,-0.9262 29.0702,34.0847 2.1544,2.5266 5.9805,-0.7316 3.8242,-3.2602 0,-0.01 -28.4637,-32.5291 -28.4686,-32.535 -1.5289,-1.8009 -4.5062,-0.6711 -4.4258,1.7105 z"
     style="stroke:#000000;stroke-width:21.6;stroke-miterlimit:4;stroke-dasharray:none;stroke-opacity:0.999841" /><path
     id="path3345"
     d="m 2156.0254,1331.7506 c -7.2055,-0.4299 -15.7433,1.5884 -21.141,3.9939 -44.0263,19.9189 -49.8956,81.689 -84.6286,87.1125 -3.2801,0.5122 -2.5097,5.4791 0.7754,4.9658 37.9912,-5.9328 43.5726,-68.2965 85.8854,-87.4788 51.6696,-20.5076 57.4038,49.8112 57.4038,105.3 -0.084,3.3883 5.1029,3.4181 5.0244,0 -10e-4,-41.0877 -2.1533,-111.4383 -43.3194,-113.8934 z"
     style="stroke:#000000;stroke-width:21.6;stroke-miterlimit:4;stroke-dasharray:none;stroke-opacity:0.999841" /><path
     id="path3361"
     d="m 2188.8026,1130.4182 c -1.6847,-0.067 -2.9624,1.5169 -2.5286,3.155 12.4682,49.8787 6.9544,29.1943 24.2504,90.9654 l -6.038,54.3362 c -0.3664,3.2999 4.6283,3.8579 4.9946,0.5549 l 6.0906,-54.8206 c 0.084,-0.7555 0.8717,2.4372 -14.281,-51.6796 l -10.1431,-40.5754 c -0.2581,-1.1 -1.2181,-1.8912 -2.3449,-1.9359 z"
     style="stroke:#000000;stroke-width:21.6;stroke-miterlimit:4;stroke-dasharray:none;stroke-opacity:0.999841" /><path
     id="path3363"
     d="m 2331.4277,1407.0392 c -13.5364,9.475 -27.0728,18.9499 -40.6082,28.4259 -2.8095,1.8922 0.1509,6.1055 2.881,4.116 13.5354,-9.4749 27.0718,-18.9499 40.6082,-28.4259 1.1486,-0.7793 1.4475,-2.3419 0.6681,-3.4906 -0.7952,-1.1724 -2.4025,-1.4534 -3.5491,-0.6254 z"
     style="stroke:#000000;stroke-width:21.6;stroke-miterlimit:4;stroke-dasharray:none;stroke-opacity:0.999841" /><path
     id="path3572"
     d="m 535.73909,1154.197 c -1.73536,3.562 -3.6653,7.0794 -5.58432,10.6564 l 0.15884,-0.2602 c -14.47456,20.5424 -12.44237,48.7102 -2.19303,70.9085 13.83225,26.3362 25.18455,54.4474 50.07623,70.9879 20.38451,13.2793 44.87015,-12.0065 64.96775,-12.4056 24.77156,0 34.1145,20.8422 53.24416,34.2555 21.5669,15.7631 26.30538,40.629 27.74589,69.0778 6.16807,25.8219 35.72278,29.0523 51.0134,45.1977 21.6215,11.6968 19.99336,38.2067 29.89324,59.3815 9.36479,25.5618 33.92588,39.5787 56.80025,49.5004 l 2.00142,-4.6094 c -23.0491,-9.9972 -45.48368,-23.3102 -54.15352,-46.7932 -9.31316,-19.6945 -8.45045,-48.8193 -31.51841,-61.5337 -15.85551,-16.4164 -43.47829,-19.2885 -49.0507,-41.9485 -1.30152,-25.7752 -5.89605,-56.147 -29.87736,-72.4095 l 0.0328,0.022 c -17.05775,-11.9608 -30.86418,-36.4693 -56.27905,-35.1618 -22.67383,0.4844 -42.39418,24.1699 -62.11354,13.181 -23.612,-15.7374 -34.89382,-43.7355 -48.23762,-68.8962 -9.28536,-20.9305 -11.74842,-46.6919 1.75819,-65.8612 0.13005,-0.1837 3.88272,-7.0844 5.8345,-11.0912 z"
     style="stroke:#000000;stroke-width:21.6;stroke-miterlimit:4;stroke-dasharray:none;stroke-opacity:0.999841" /><path
     id="path3702"
     d="m 584.33808,1437.677 -3.34265,3.7517 c 1.81775,1.6202 3.54319,3.3814 5.21997,5.218 11.87947,18.4486 32.22129,29.4405 52.84903,34.1939 11.00583,5.1187 22.38196,0.1578 31.89765,-1.6599 8.94087,1.0632 14.10724,12.0651 10.9691,20.0668 -15.35217,20.7102 -23.64775,45.0161 -28.73767,70.2781 0.16877,0.7614 8.17644,36.7959 8.36904,37.6547 0.70685,0.8568 36.69867,44.4234 38.96218,47.1634 l 3.87379,-3.1997 c -12.73127,-15.4107 -25.46153,-30.8244 -38.1918,-46.2352 -2.6219,-11.798 -5.2448,-23.5941 -7.8667,-35.3922 4.93307,-24.4548 13.179,-47.8941 28.08045,-67.9133 4.73352,-11.4962 -2.50078,-26.2736 -15.60929,-27.5254 -11.50917,2.0927 -21.04073,6.452 -30.24072,1.9547 -36.6957,-8.3005 -48.84817,-30.8165 -50.60041,-32.7286 -1.7711,-1.9398 -3.62956,-3.842 -5.63197,-5.627 z"
     style="stroke:#000000;stroke-width:21.6;stroke-miterlimit:4;stroke-dasharray:none;stroke-opacity:0.999841" /><path
     id="path3762"
     d="m 576.24404,1367.9182 c -1.04837,0.4656 -36.77214,16.3429 -38.18684,16.9723 -5.17828,13.4163 -16.77282,24.8341 -13.2068,40.087 l -0.0546,-0.3296 c 2.98228,30.7222 5.36393,54.7969 23.31219,77.7129 13.71311,15.5686 25.6571,33.7303 35.99679,58.4254 0.41199,0.9998 9.35386,13.7409 4.26294,33.2886 -0.0864,1.2915 -0.13501,2.5226 -0.0933,3.9264 l 5.02242,-0.1509 c -0.0318,-1.0514 0,-2.1216 0.0695,-3.2047 0,-0.9997 5.6558,-18.4953 -4.68289,-35.9154 -9.0461,-21.5758 -21.05761,-42.1301 -36.8039,-59.6892 l 0.0606,0.072 c -17.82317,-21.4378 -19.5893,-51.0452 -22.16057,-75.1139 -1.47128,-6.5254 0.137,-11.9241 3.12523,-18.0058 2.73707,-5.5694 6.43513,-11.1984 8.96172,-17.298 11.67893,-5.1902 23.35885,-10.3794 35.03678,-15.5696 15.99549,2.6656 31.98899,5.3302 47.98447,7.9968 l 0.82598,-4.9559 c -1.3174,-0.2234 -48.13536,-8.0256 -49.46964,-8.2479 z"
     style="stroke:#000000;stroke-width:21.6;stroke-miterlimit:4;stroke-dasharray:none;stroke-opacity:0.999841" /><path
     id="path3826"
     d="m 830.83451,962.47852 c -14.77338,11.82982 -29.10499,25.69086 -47.81569,25.99961 -27.55627,6.03901 -50.15366,22.84057 -70.88167,42.18277 -23.6269,14.0863 -60.70183,9.5772 -79.33609,21.1926 -21.74262,13.3239 -34.84121,37.8691 -27.73894,58.071 5.19118,13.9553 17.57894,18.4377 20.70219,34.1343 2.9247,14.2909 11.23119,27.6933 25.44366,33.4722 1.77408,1.1536 3.40818,2.4025 4.74047,3.839 l 3.68218,-3.4161 c -1.74132,-1.8763 -3.72983,-3.3764 -5.73324,-4.6749 -0.99971,-0.6453 -18.1756,-5.629 -23.20993,-30.2268 l 0.0308,0.1935 c -1.88626,-15.1675 -16.36281,-22.8862 -20.91565,-35.0079 -6.30606,-20.2039 7.73168,-41.0798 25.52507,-52.031 24.39431,-12.1247 54.75415,-6.4431 79.52372,-21.2999 3.15999,-1.9011 31.74576,-33.3401 68.96166,-41.45699 20.73298,-0.65721 35.92233,-15.64603 50.16161,-27.04897 z"
     style="stroke:#000000;stroke-width:21.6;stroke-miterlimit:4;stroke-dasharray:none;stroke-opacity:0.999841" /><path
     id="path3565"
     d="m 1253.1592,897.50481 c -10.6405,8.51199 -21.281,17.02399 -31.9215,25.53598 l 0.2194,-0.15685 c -9.0322,5.75805 -14.2026,14.89847 -19.0443,23.25262 0,0.004 -0.01,0.008 -0.01,0.0119 -14.4458,21.30679 -25.6254,44.40156 -36.8714,67.21344 -10.5929,10.9869 -21.5868,21.6423 -32.3851,32.5578 l 3.5739,3.5353 c 10.5144,-10.6286 23.211,-22.9737 32.955,-33.1436 31.5234,-63.39623 31.5323,-58.02734 37.0759,-67.64131 9.3966,-16.2119 11.6114,-16.91478 17.6256,-21.70291 10.6405,-8.51199 21.281,-17.02399 31.9215,-25.53598 z"
     style="stroke:#000000;stroke-width:21.6;stroke-miterlimit:4;stroke-dasharray:none;stroke-opacity:0.999841" /><path
     id="path3689"
     d="m 930.96215,1565.1356 c -78.48529,31.3943 7.80713,2.6467 -206.5395,34.3627 l 0.73465,4.9717 c 49.11324,-7.267 98.23542,-14.5976 147.71003,-16.9525 9.82146,-0.405 20.55527,-0.5301 30.12258,-5.8037 l -0.28095,0.132 c 10.03788,-4.0147 20.07675,-8.0295 30.11463,-12.0452 z"
     style="stroke:#000000;stroke-width:21.6;stroke-miterlimit:4;stroke-dasharray:none;stroke-opacity:0.999841" /><path
     id="path4136"
     d="m 1318.1438,1305.3509 -5.0085,0.3922 c 0.7257,9.2565 7.8687,103.5775 15.3234,109.5063 l 2.7867,-4.1806 c 0.4527,0.3684 0.5003,0.4478 0.5003,0.4478 -5.8643,-10.0518 -12.7074,-94.7608 -13.6019,-106.1657 z"
     style="stroke:#000000;stroke-width:21.6;stroke-miterlimit:4;stroke-dasharray:none;stroke-opacity:0.999841" /><path
     id="path4138"
     d="m 1110.8101,1207.0113 -4.5409,2.1523 c 10.8976,23.0054 28.7932,67.7088 18.804,91.016 -1.2023,2.8056 -2.067,3.5908 -2.067,3.5908 l 3.5522,3.5522 c 4.3384,-4.5459 6.0707,-14.3287 6.3169,-21.4855 0.5272,-15.2768 -3.6782,-40.0086 -22.0652,-78.8258 z"
     style="stroke:#000000;stroke-width:21.6;stroke-miterlimit:4;stroke-dasharray:none;stroke-opacity:0.999841" /><path
     id="path4140"
     d="m 1568.8952,1009.084 -3.2612,3.8222 c 34.0956,29.0811 46.9718,59.4539 51.4472,82.5735 4.4754,23.1196 0.5371,38.7606 0.5371,38.7606 l 4.8745,1.2202 c 0,0 4.1835,-16.8463 -0.4785,-40.9339 -4.662,-24.0885 -18.1806,-55.6426 -53.1191,-85.4426 z"
     style="stroke:#000000;stroke-width:21.6;stroke-miterlimit:4;stroke-dasharray:none;stroke-opacity:0.999841" /><path
     id="path4142"
     d="m 1523.3579,1207.2475 -5.0085,0.4071 c 4.1041,50.52 38.6644,79.9178 71.7931,96.3888 33.1286,16.4711 65.1921,20.3846 65.1921,20.3846 l 0.6125,-4.9887 c 0,0 -31.3119,-3.8589 -63.5679,-19.8961 -32.2541,-16.0362 -65.0879,-43.8784 -69.0213,-92.2957 z"
     style="stroke:#000000;stroke-width:21.6;stroke-miterlimit:4;stroke-dasharray:none;stroke-opacity:0.999841" /><path
     id="path4144"
     d="m 723.84784,1724.2158 c -27.35772,-1.2936 -56.74267,5.9496 -80.12335,32.4466 l 3.76755,3.3258 c 29.73937,-33.7045 69.10263,-34.6337 101.60885,-27.1324 32.50621,7.5014 57.58553,23.5257 57.58553,23.5257 l 2.70926,-4.2332 c -26.19916,-16.7927 -65.24076,-27.9325 -85.54784,-27.9325 z"
     style="stroke:#000000;stroke-width:21.6;stroke-miterlimit:4;stroke-dasharray:none;stroke-opacity:0.999841" /><path
     id="path3419"
     d="m 1232.1929,1543.9797 c -21.4944,41.59 -16.2536,97.8849 18.7812,130.8965 l 3.4479,-3.6574 c -33.1287,-31.2156 -38.2514,-85.2917 -17.7646,-124.9329 z"
     style="stroke:#000000;stroke-width:21.6;stroke-miterlimit:4;stroke-dasharray:none;stroke-opacity:0.999841" /><path
     id="path3421"
     d="m 1366.0329,1485.4977 c -11.4307,36.3283 -33.4175,69.5444 -40.7422,108.4142 -3.841,6.9822 -11.7484,11.3633 -17.6911,18.6691 l 3.8976,3.1718 c 5.3232,-6.5443 13.4302,-10.5213 18.535,-19.9874 6.7776,-37.6626 29.0037,-71.2877 40.7938,-108.7597 z"
     style="stroke:#000000;stroke-width:21.6;stroke-miterlimit:4;stroke-dasharray:none;stroke-opacity:0.999841" /><path
     id="path3423"
     d="m 1666.7306,1420.0633 c -12.0066,21.7109 -18.0237,55.5394 -47.1982,51.5495 -30.5346,6.7697 -59.1273,-3.7179 -90.1901,-10.154 l -1.0195,4.9191 c 29.3551,6.0827 60.0684,17.2127 91.4518,10.304 32.5221,4.116 40.4216,-34.4183 51.3539,-54.1873 z"
     style="stroke:#000000;stroke-width:21.6;stroke-miterlimit:4;stroke-dasharray:none;stroke-opacity:0.999841" /><path
     id="path3425"
     d="m 1683.6622,1364.0017 -1.0414,4.9152 c 31.3447,6.6456 65.7352,16.2139 98.0657,3.8569 25.2937,-0.9332 48.0281,13.3964 72.1266,22.4336 l 1.7641,-4.7057 c -23.9326,-8.9747 -46.8318,-23.898 -74.7515,-22.7384 -30.8741,12.074 -63.5858,3.1451 -96.1635,-3.7616 z"
     style="stroke:#000000;stroke-width:21.6;stroke-miterlimit:4;stroke-dasharray:none;stroke-opacity:0.999841" /><path
     id="path3427"
     d="m 1929.5134,988.70746 c -23.3797,14.69294 -46.1945,30.25464 -68.5834,46.38214 l -46.0298,4.0018 0.4349,5.0066 47.3908,-4.12 c 22.1159,-15.9935 45.9364,-32.2292 69.462,-47.01455 z"
     style="stroke:#000000;stroke-width:21.6;stroke-miterlimit:4;stroke-dasharray:none;stroke-opacity:0.999841" /><path
     id="path3429"
     d="m 1861.0987,936.57719 c -39.0535,-1.63707 -53.6283,16.07987 -81.4566,27.57017 l 1.918,4.64616 c 10.8788,-4.49129 19.221,-9.73211 33.5586,-17.15008 28.0774,-15.61029 62.8204,-11.4079 92.4565,0.85875 13.4847,5.90995 72.7401,19.25474 106.658,58.25461 l 3.7904,-3.2959 c -28.2204,-32.44868 -69.9087,-46.67207 -108.6902,-59.66245 l 0.1628,0.0625 c -26.8981,-11.1339 -46.0724,-10.99293 -48.3975,-11.28381 z"
     style="stroke:#000000;stroke-width:21.6;stroke-miterlimit:4;stroke-dasharray:none;stroke-opacity:0.999841" /><path
     id="path3431"
     d="m 1898.8368,877.19177 c -10.1679,8.03051 -17.6951,18.25999 -27.4659,25.24213 -14.6503,4.68091 -23.3718,21.95805 -18.0019,36.48225 l 4.7117,-1.7433 c -4.1964,-11.34833 2.7589,-26.54464 15.7294,-30.29432 11.4864,-8.19531 18.4506,-18.08924 28.14,-25.74149 z"
     style="stroke:#000000;stroke-width:21.6;stroke-miterlimit:4;stroke-dasharray:none;stroke-opacity:0.999841" /><path
     id="path3433"
     d="m 1537.5247,809.71331 -1.1436,4.89435 c 26.9715,6.30507 47.6538,56.98192 6.8947,58.40059 -35.1052,6.37059 -74.9847,11.68588 -108.0677,34.65754 l 0.093,-0.0625 c -26.8455,16.90982 -63.3466,37.72222 -56.8529,75.26375 16.9545,24.39726 3.0329,46.54686 -24.5591,52.19976 -29.1695,22.094 -39.6442,57.3681 -48.8472,92.937 -15.0136,29.4882 -26.3619,65.3599 -53.9401,82.5427 -37.0947,14.8201 -33.9953,54.8733 -19.7838,92.1984 0.7495,37.2983 -39.8289,48.186 -56.6047,77.8658 -6.1542,31.2672 -29.7086,46.816 -54.0334,67.4149 l 0.134,-0.1062 c -29.0335,21.3763 -6.2048,54.8941 25.0446,72.9953 l 2.5186,-4.3493 c -23.7281,-13.7449 -52.1044,-44.0382 -24.5144,-64.6491 21.8002,-18.6819 48.8323,-36.0593 55.5821,-69.4273 15.8684,-27.5761 58.0174,-40.0205 56.8976,-80.6287 -13.3786,-35.0556 -17.8659,-73.17 16.9465,-86.8027 0.2641,-0.1022 0.1708,-0.056 0.411,-0.2055 29.8853,-18.5776 41.2078,-56.0368 56.0656,-85.0673 8.4812,-32.4447 18.5181,-68.6688 46.3514,-90.0778 30.4601,-6.6139 44.6567,-32.7952 27.1442,-58.65077 -5.6835,-34.56323 31.1918,-53.62736 54.8138,-69.26247 31.0309,-21.54704 68.8604,-27.23858 105.9095,-33.80773 l -0.3435,0.0367 c 46.2501,-1.78202 27.3369,-60.48838 -6.1165,-68.30941 z"
     style="stroke:#000000;stroke-width:21.6;stroke-miterlimit:4;stroke-dasharray:none;stroke-opacity:0.999841" /><path
     id="path3438"
     d="m 1389.9289,811.26699 c -42.7566,7.19956 -61.0384,50.55872 -69.3727,92.99956 -25.6015,26.63399 -35.1003,64.33636 -35.5341,97.06195 -20.9117,22.111 -65.9179,41.6258 -54.2241,82.9905 l -0.1489,-0.7366 c 5.2508,41.6496 -49.9144,40.2091 -84.2721,47.3262 -30.3241,-0.5341 -85.118,-11.7395 -104.3042,29.4981 -19.364,37.889 -0.7138,86.5387 -5.356,125.761 0,0.01 0,0.015 0,0.023 -6.7419,59.4043 -46.03864,111.6576 -52.07169,175.1601 0,5.9387 -9.17318,42.3157 3.18579,133.1908 l 9.95647,-1.3552 c -5.90002,-43.3869 -9.17913,-87.3874 -3.18976,-130.4507 10.00709,-70.8896 45.04389,-113.1935 52.10549,-175.4123 2.5444,-21.547 -1.0276,-43.106 -2.7321,-63.8201 -8.378,-101.7945 54.1187,-83.2029 103.2002,-82.5169 30.9744,-6.6069 100.1634,-5.4235 93.4513,-58.6617 -0.058,-0.4596 -0.024,-0.2919 -0.1499,-0.7386 -9.8245,-34.7499 30.7817,-49.7446 54.5188,-76.1265 0,-35.86968 9.7014,-71.06431 34.8492,-96.4355 7.4438,-38.71995 22.6877,-81.26603 61.7581,-87.8461 z"
     style="stroke:#000000;stroke-width:21.6;stroke-miterlimit:4;stroke-dasharray:none;stroke-opacity:0.999841" /><path
     id="path3446"
     d="m 932.05519,1251.527 -4.38208,2.4611 c 8.62517,15.3631 21.02187,27.9325 26.39374,43.6986 4.10509,24.2385 6.32592,48.9247 3.56205,73.2356 -9.93364,44.0213 -0.96795,88.6949 4.25798,131.8763 l 4.98866,-0.6046 c -5.31528,-43.9161 -14.01491,-87.585 -4.26989,-130.554 4.00085,-34.6972 -3.28706,-74.1399 -3.71395,-75.4047 -5.82755,-17.2781 -18.63823,-30.1087 -26.83651,-44.7083 z"
     style="stroke:#000000;stroke-width:21.6;stroke-miterlimit:4;stroke-dasharray:none;stroke-opacity:0.999841" /><path
     id="path3490"
     d="m 1238.0175,828.13214 c -1.65,15.14766 -19.0036,19.9884 -34.1225,21.01095 -30.4899,1.25486 -86.6796,24.83311 -117.4445,32.37914 -25.5727,8.70062 -53.8914,24.60973 -79.1276,36.28072 l -39.35134,62.13241 c -0.3425,20.35574 4.28181,42.11224 23.72518,48.13934 l -0.23032,-0.083 c 18.63628,7.8379 36.70758,17.1858 55.32698,25.6005 19.1376,17.1114 28.283,42.4984 42.2075,64.8437 l -0.095,-0.1628 c 3.1094,5.9417 6.184,11.9122 9.2814,17.8797 l 4.4595,-2.3151 c -29.8912,-57.5667 -38.7378,-71.7434 -53.0158,-84.4677 -13.7061,-6.1701 -51.04415,-24.4102 -56.44779,-26.093 -16.45613,-5.1008 -20.36962,-24.51141 -20.19092,-41.87989 l 37.79871,-59.68027 c 25.8566,-12.03036 50.6014,-26.10186 77.1778,-35.39815 39.401,-10.13219 76.5027,-27.97025 116.3584,-32.16966 l -0.093,0.008 c 18.0496,-1.2211 36.8278,-7.5778 38.7776,-25.48039 z"
     style="stroke:#000000;stroke-width:21.6;stroke-miterlimit:4;stroke-dasharray:none;stroke-opacity:0.999841" /><path
     id="path3502"
     d="m 985.895,1155.7586 c -14.72573,-0.3683 -29.1586,3.5075 -42.41702,9.2546 -20.38848,6.2951 -40.67372,14.2135 -58.32613,26.9288 -12.57044,7.1023 -23.12753,16.9089 -32.34241,27.6556 -9.9257,9.5861 -19.42748,20.6069 -23.61101,34.5622 l 0.0268,-0.083 c -3.32677,9.8364 -11.23119,20.0192 -8.87436,32.0823 l -0.0467,-0.4169 c 0.38321,14.9332 0.39413,31.1818 8.48916,45.2831 4.49129,10.7795 8.98456,21.559 13.47584,32.3384 l 4.63821,-1.9309 c -0.0973,-0.2333 -13.45598,-32.2948 -13.55327,-32.5281 -9.60305,-16.5266 -7.28593,-39.6839 -8.07617,-43.7086 -1.97958,-10.1302 5.19615,-19.1366 8.70459,-29.507 2.96639,-9.0868 7.21544,-17.7378 22.48521,-32.6452 16.50775,-19.4265 29.68477,-25.67 31.61868,-27.0232 16.88302,-12.1604 37.07891,-20.183 57.06234,-26.2657 27.68235,-12.1574 45.15607,-8.4057 47.04531,-8.5685 15.89813,-1.3949 30.43723,7.4974 43.87933,16.5028 l 2.7977,-4.1746 c -26.3988,-17.6862 -33.6639,-17.2722 -52.97913,-17.7557 z"
     style="stroke:#000000;stroke-width:21.6;stroke-miterlimit:4;stroke-dasharray:none;stroke-opacity:0.999841" /><path
     id="path3509"
     d="m 943.81354,918.38372 c -28.42991,10.95222 -49.30386,13.25346 -61.78891,32.05748 -0.12112,0.17969 -0.0824,0.11119 -0.17473,0.30677 -9.46704,19.81665 9.83337,43.86447 -7.43782,58.95653 -36.24697,27.9176 -90.89291,46.9699 -115.29217,63.7189 -22.51797,14.825 -51.93866,30.6199 -57.21324,61.08 -7.00795,22.1338 7.88357,52.4668 34.8144,58.2318 20.13036,14.2612 15.40875,42.5024 27.31602,63.7775 4.70274,22.6927 31.07663,33.1088 52.57701,29.1725 l -0.90541,-4.942 c -18.56576,3.3992 -42.82405,-5.0751 -46.91326,-25.951 -12.06611,-21.0467 -6.61383,-50.5398 -29.93395,-66.717 -32.72959,-6.4222 -49.70097,-52.3924 -11.41684,-86.2736 8.76416,-7.7565 27.91069,-20.2773 34.37262,-24.1381 38.91453,-23.6815 73.91756,-33.2498 115.79253,-64.0703 19.95365,-18.40495 0.412,-42.67814 8.70657,-60.49833 12.91294,-19.26665 38.57799,-20.48974 59.30799,-30.0233 42.61458,-16.45613 59.35465,-4.21926 68.68265,-0.93022 l 1.6719,-4.7365 -3.0885,-1.09205 0.3454,0.1509 c -21.57877,-11.47938 -46.70375,-6.85308 -69.42226,1.92002 z"
     style="stroke:#000000;stroke-width:21.6;stroke-miterlimit:4;stroke-dasharray:none;stroke-opacity:0.999841" /><path
     id="path3522"
     d="m 918.70345,1003.8482 c -2.49483,17.3277 -28.29489,32.7593 -33.99636,58.4621 8.41867,39.3802 -4.24607,42.3039 -47.35902,42.0567 -29.74434,8.5527 -35.84788,54.3133 -39.92021,85.1179 l 4.98072,0.6592 c 2.12154,-16.0491 3.95022,-32.1111 9.1563,-47.1058 0,-0.01 0,-0.01 0,-0.014 4.80698,-14.1132 12.17233,-29.4217 26.58336,-33.636 41.86007,0.061 60.87953,-3.0439 51.69345,-46.8785 5.40959,-23.4572 31.02698,-38.4797 33.82957,-57.945 z"
     style="stroke:#000000;stroke-width:21.6;stroke-miterlimit:4;stroke-dasharray:none;stroke-opacity:0.999841" /><path
     id="path3580"
     d="m 1065.9558,951.87774 c -0.7336,3.8023 0.047,18.54193 -16.0729,35.46168 l 0.136,-0.12807 c -15.3591,13.37755 -19.8633,33.18925 -20.6486,52.26925 l 4.0177,0.1668 c 0.7704,-18.7365 5.1763,-37.1752 19.3412,-49.46767 17.2811,-18.48534 16.4114,-33.54465 17.1689,-37.54451 z"
     style="stroke:#000000;stroke-width:21.6;stroke-miterlimit:4;stroke-dasharray:none;stroke-opacity:0.999841" /></g></svg>
